<?xml version="1.0" encoding="UTF-8"?>
<svg id="Layer_1" data-name="Layer 1" xmlns="http://www.w3.org/2000/svg" viewBox="0 0 1719.043 521.638">
  <defs>
    <style>
      .cls-1 {
        fill: #57a7ff;
      }

      .cls-1, .cls-2, .cls-3, .cls-4 {
        stroke-width: 0px;
      }

      .cls-2 {
        fill: #6accb5;
      }

      .cls-3 {
        fill: #030e35;
      }

      .cls-4 {
        fill: #113160;
      }
    </style>
  </defs>
  <g>
    <path class="cls-4" d="M145.33,509.282c-15.861,6.271-31.537,9.407-47.213,9.407-22.685,0-39.652-6.455-51.087-19.365s-17.152-30.615-17.152-53.3v-70.267H0v-52.746h29.877v-60.492h60.492v60.492h51.824v52.746h-51.824v70.267c0,13.464,6.639,20.103,19.918,20.103,7.377,0,14.201-1.66,20.471-4.979l14.57,48.135Z"/>
    <rect class="cls-4" x="173.538" y="322.825" width="60.308" height="192.543"/>
    <path class="cls-4" d="M371.793,521.638c-29.693,0-54.407-9.774-73.956-29.14-19.55-19.365-29.324-43.524-29.324-72.48s9.775-53.115,29.14-72.48c19.365-19.365,43.709-29.14,73.034-29.14,25.635,0,47.213,6.639,64.55,19.918,17.336,13.278,28.033,28.402,32.09,45.184l-55.882,15.861c-1.66-7.562-6.271-14.017-13.647-19.55-7.377-5.533-16.23-8.299-26.558-8.299-13.094,0-23.607,4.611-31.721,13.832-8.115,9.221-12.172,20.471-12.172,33.75s4.057,24.713,12.172,34.303c8.114,9.59,18.627,14.386,31.721,14.386,10.328,0,19.181-2.766,26.558-8.115,7.377-5.349,11.987-11.803,13.832-19.181l55.882,15.861c-4.057,16.782-14.57,31.721-31.722,44.815-17.151,13.095-38.361,19.734-63.812,19.734l-.184.738Z"/>
    <path class="cls-3" d="M658.086,519.61c-31.537,0-56.988-9.406-76.537-28.218-19.55-18.811-29.324-43.156-29.324-73.218,0-29.508,9.406-53.853,28.218-73.033,18.812-19.181,43.34-28.771,73.771-28.771,30.984,0,55.513,9.405,73.587,28.217s27.111,42.603,27.111,71.374c0,7.561-.553,14.201-1.475,19.918h-142.378c4.61,22.132,20.656,33.197,48.135,33.197,18.443,0,31.353-6.455,38.545-19.55l54.406,15.861c-6.086,13.832-17.336,26.373-33.935,37.439-16.598,11.066-36.517,16.598-59.939,16.598l-.185.185ZM696.078,399.732c-.923-9.037-5.164-16.782-12.91-23.238-7.746-6.455-17.521-9.59-29.324-9.59s-21.577,3.319-29.14,9.775c-7.561,6.455-11.987,14.201-13.463,23.053h84.837Z"/>
    <path class="cls-3" d="M867.768,519.98c-23.791,0-44.447-5.902-62.152-17.706-17.705-11.803-29.14-25.82-34.119-42.234l53.853-15.861c3.319,8.299,8.852,15.123,16.598,20.287,7.745,5.164,17.151,7.746,28.033,7.746,7.192,0,13.094-1.476,17.521-4.242,4.426-2.766,6.639-6.087,6.639-9.959,0-6.271-6.086-11.25-18.074-14.755l-46.107-13.648c-32.459-9.775-48.688-27.664-48.688-53.668,0-16.783,7.93-30.984,23.607-42.419,15.676-11.434,34.487-17.151,56.435-17.151,20.656,0,38.729,4.426,54.406,13.278,15.676,8.853,26.558,20.84,32.829,35.964l-52.932,15.123c-8.668-11.987-20.287-18.074-34.856-18.074-5.534,0-10.329,1.107-14.386,3.32-4.057,2.213-6.086,4.979-6.086,8.483,0,4.98,3.688,8.853,11.066,11.434l44.447,12.357c8.852,2.397,16.229,4.979,22.131,7.561,5.902,2.582,11.803,5.902,17.705,10.144,5.902,4.241,10.328,9.59,13.279,16.229s4.427,14.385,4.427,23.238c0,18.627-7.931,33.935-23.976,45.923-16.045,11.987-36.701,18.073-61.968,18.073l.369.554Z"/>
    <path class="cls-3" d="M1076.9,520.163c-29.693,0-54.407-9.774-73.956-29.14-19.55-19.365-29.324-43.524-29.324-72.48s9.775-53.115,29.14-72.48c19.366-19.365,43.711-29.14,73.034-29.14,25.635,0,47.213,6.639,64.55,19.918,17.336,13.278,28.034,28.402,32.091,45.184l-55.881,15.861c-1.66-7.562-6.271-14.017-13.649-19.55-7.377-5.533-16.229-8.299-26.556-8.299-13.096,0-23.607,4.611-31.723,13.832-8.114,9.221-12.172,20.471-12.172,33.75s4.057,24.713,12.172,34.303c8.116,9.59,18.627,14.386,31.723,14.386,10.328,0,19.18-2.766,26.556-8.115,7.378-5.349,11.988-11.803,13.832-19.181l55.882,15.861c-4.057,16.782-14.57,31.721-31.721,44.815-17.153,13.095-38.361,19.734-63.812,19.734l-.185.738Z"/>
    <path class="cls-3" d="M1296.54,519.61c-29.877,0-54.592-9.775-74.14-29.14-19.55-19.365-29.324-43.525-29.324-72.48s9.775-53.115,29.324-72.48c19.548-19.365,44.262-29.14,74.14-29.14s54.59,9.59,74.14,28.955c19.55,19.365,29.324,43.525,29.324,72.48s-9.775,53.115-29.324,72.481c-19.55,19.365-44.262,29.139-74.14,29.139v.185ZM1296.54,465.389c13.647,0,24.528-4.426,32.644-13.279,8.114-8.852,12.172-20.287,12.172-34.119s-4.057-25.082-12.172-33.935c-8.116-8.853-18.997-13.279-32.644-13.279s-24.529,4.426-32.644,13.279c-8.116,8.852-12.173,20.103-12.173,33.935s4.057,25.082,12.173,33.935c8.114,8.853,18.995,13.279,32.644,13.279v.184Z"/>
    <path class="cls-3" d="M1494.418,347.171c5.718-10.513,13.833-18.443,24.161-23.607,10.328-5.164,22.316-6.824,36.148-5.164v56.619c-20.657-3.504-35.78-.554-45.555,8.852-9.775,9.406-14.57,26.004-14.57,49.796v80.41h-60.492v-192.542h60.492v26.004l-.185-.369Z"/>
    <path class="cls-3" d="M1719.043,507.807c-15.861,6.271-31.536,9.407-47.213,9.407-22.684,0-39.652-6.455-51.086-19.365-11.435-12.91-17.151-30.615-17.151-53.3v-70.267h-29.877v-52.746h29.877v-60.492h60.492v60.492h51.824v52.746h-51.824v70.267c0,13.464,6.639,20.103,19.918,20.103,7.377,0,14.2-1.66,20.471-4.979l14.57,48.135Z"/>
  </g>
  <g>
    <g>
      <path class="cls-2" d="M400.059,13.307c24.678-.257,43.838,19.068,44.118,44.498.26,23.663-19.095,43.353-43.189,43.936-24.345.589-44.717-19.035-44.939-43.29-.234-25.592,18.569-44.88,44.01-45.145Z"/>
      <path class="cls-2" d="M204.358,298.974c-20.624-.428-36.392-17.048-35.855-37.793.51-19.691,17.125-35.671,36.727-35.322,20.795.37,36.759,16.707,36.431,37.283-.323,20.233-17.001,36.253-37.303,35.832Z"/>
      <path class="cls-2" d="M104.158,118.081c-13.47-.053-23.728-10.436-23.616-23.902.107-12.894,10.749-23.518,23.605-23.565,13.265-.049,23.823,10.549,23.786,23.876-.038,13.66-10.101,23.646-23.775,23.592Z"/>
    </g>
    <g>
      <circle class="cls-1" cx="87.88" cy="204.694" r="40.053"/>
      <path class="cls-1" d="M281.719,114.03c0,29.752-23.185,53.87-51.785,53.87-16.261,0-30.771-7.796-40.265-19.992-7.204-9.254-11.52-21.042-11.52-33.879,0-29.752,23.185-53.87,51.785-53.87s51.785,24.119,51.785,53.87Z"/>
      <circle class="cls-1" cx="429.723" cy="209.382" r="76.404"/>
      <circle class="cls-1" cx="590.701" cy="50.877" r="50.877"/>
      <rect class="cls-1" x="90.106" y="139.502" width="127.704" height="30.145" transform="translate(-62.775 129.609) rotate(-38.544)"/>
      <rect class="cls-1" x="258.565" y="134.367" width="127.704" height="30.145" transform="translate(117.915 -141.187) rotate(30)"/>
      <rect class="cls-1" x="461.218" y="111.349" width="127.704" height="30.145" transform="translate(64.396 408.308) rotate(-45)"/>
      <path class="cls-1" d="M499.133,177.404c-.126-.436-.224-.983-.196-1.61.095-2.165,1.611-3.588,2.04-3.964-1.02,1.02-2.04,2.04-3.06,3.06l1.216,2.514Z"/>
      <path class="cls-1" d="M476.938,149.309c.415.161,1.133.374,2.027.307,1.502-.112,2.5-.936,2.832-1.238-.899.899-1.799,1.799-2.698,2.698l-2.161-1.767Z"/>
      <path class="cls-1" d="M576.578,99.768c-.507-.088-1.382-.174-2.419.077-1.175.284-1.984.859-2.395,1.198l2.13-2.13,2.684.856Z"/>
      <path class="cls-1" d="M548.704,79.604c.085.182.209.513.191.935-.034.776-.526,1.274-.652,1.394.411-.411.823-.823,1.234-1.234l-.772-1.095Z"/>
      <path class="cls-1" d="M370.104,159.567c.077.054.538.364,1.128.23.42-.095.671-.361.756-.46-.251.294-.503.588-.754.883l-1.13-.652Z"/>
      <path class="cls-1" d="M356.49,187.525c.028-.108.081-.378-.028-.69-.139-.4-.448-.594-.535-.644.275.159.549.317.824.476l-.261.859Z"/>
      <path class="cls-1" d="M281.166,106.136c.036.4.174,1.311.836,2.213.732.997,1.674,1.398,2.047,1.534-.871-.503-1.742-1.006-2.613-1.508l-.27-2.239Z"/>
      <path class="cls-1" d="M278.175,141.3c-.131-.093-1.138-.787-2.403-.433-1.099.307-1.607,1.184-1.701,1.353.462-.83.924-1.66,1.386-2.49l2.719,1.57Z"/>
      <path class="cls-1" d="M189.431,147.601c-.176-.148-.446-.328-.809-.412-1.086-.251-1.977.598-2.065.684.644-.513,1.288-1.026,1.932-1.539l.942,1.267Z"/>
      <path class="cls-1" d="M178.148,114.03c-.022.411-.111,1.086-.474,1.823-.473.959-1.158,1.513-1.517,1.765.675-.538,1.35-1.076,2.026-1.614-.011-.658-.023-1.316-.034-1.974Z"/>
      <path class="cls-1" d="M127.359,197.9c-.058-.453-.093-1.222.198-2.095.508-1.524,1.66-2.314,2.042-2.553-.914.728-1.827,1.456-2.741,2.184l.502,2.464Z"/>
      <path class="cls-1" d="M107.263,169.636c.326.159,1.116.492,2.147.383,1.21-.128,1.993-.782,2.251-1.018-.778.62-1.557,1.24-2.335,1.861l-2.063-1.225Z"/>
    </g>
  </g>
</svg>