<?xml version="1.0" encoding="UTF-8"?>
<svg id="Layer_1" data-name="Layer 1" xmlns="http://www.w3.org/2000/svg" viewBox="0 0 406.217 218.498">
  <defs>
    <style>
      .cls-1 {
        fill: #0073ba;
        stroke-width: 0px;
      }
    </style>
  </defs>
  <path class="cls-1" d="M361.877,109.28c-3.701-7.088-7.208-14.279-10.791-21.429-7.444-14.855-14.887-29.709-22.333-44.563-3.134-6.251-6.269-12.501-9.41-18.749-3.471-6.905-7.057-13.756-10.368-20.736-1.224-2.58-2.7-3.763-5.677-3.757-40.37.088-80.74.067-121.11.088-1.049,0-2.098.17-3.646.303,2.111,1.81,4.075,2.986,5.306,4.691,1.263,1.749,2.372,3.978,2.51,6.066.138,2.096-.661,4.453-1.65,6.388-2.727,5.33-6.608,6.117-16.314,3.582-1.028.994-2.216,2.078-3.331,3.233-6.593,6.827-13.169,13.669-19.749,20.508-6.146,6.388-12.281,12.788-18.436,19.168-7.717,7.999-15.438,15.994-23.181,23.968-5.784,5.957-12.927,8.803-21.159,8.831-18.622.064-37.245.034-55.868.043-1,0-2.037-.158-2.988.059-.901.205-2.031.587-2.505,1.274-1.785,2.586-4.1,4.346-7.062,5.28-1.207.381-1.972,1.079-1.982,2.388-.021,2.831-.007,5.662-.007,8.588,6.311,1.136,9.373,5.107,10.94,10.681h103.987c.732-1.601,1.187-2.918,1.891-4.085,4.325-7.176,12.215-7.979,17.484-2.034,3.294,3.717,3.695,7.86,1.695,12.191-1.89,4.09-5.166,6.275-9.831,6.152-4.778-.126-8.187-2.429-9.778-6.799-.928-2.55-2.334-3.055-4.742-3.05-32.371.066-64.742.08-97.113.024-2.452-.004-3.924.711-4.909,3.038-1.364,3.222-3.658,5.705-7.23,6.522-2.287.523-2.452,2.063-2.45,3.95.024,22.497.043,44.994-.021,67.491-.007,2.461.87,3.963,3.083,4.981,6.071,2.791,12.304,4.811,19.081,4.815,69.866.034,139.732.098,209.598.118,21.026.006,42.053-.057,63.079-.07.179-.305.359-.61.537-.909.01-.017.023-.038.033-.056-.011,0-.02,0-.031,0,.804-1.759,1.293-3.003,1.92-4.172,3.368-6.271,6.799-12.508,10.154-18.786,6.592-12.331,13.146-24.683,19.721-37.024,7.511-14.098,14.991-28.214,22.58-42.27,1.132-2.098,1.185-3.799.072-5.93ZM258.473,79.859c4.489-.466,8.936.596,13.126,2.387,3.84,1.641,4.428,1.499,7.185-2.524v14.94c-.19.046-.38.093-.57.139-.455-.959-.945-1.903-1.36-2.878-3.838-9.013-14.49-12.023-22.488-6.389-2.344,1.651-3.856,3.847-4.841,6.483-3.166,8.47-2.799,16.9.435,25.232,2.106,5.425,8.788,8.961,14.731,7.942,3.892-.667,7.417-2.134,10.276-4.984.874-.871,1.874-1.614,2.9-2.487.856,1.781.229,3.024-.959,4.072-3.722,3.284-7.768,5.595-12.977,5.943-5.983.4-11.651.002-16.983-3.006-6.988-3.942-10.674-10.029-11.345-17.852-1.195-13.941,8.976-25.574,22.869-27.016ZM213.891,87.026c.043-3.772-2.398-4.783-5.213-5.821h21.285c.061.155.121.31.182.465-.588.092-1.202.105-1.76.288-2.66.873-3.355,1.757-3.406,4.632-.068,3.872-.036,7.746-.037,11.619-.002,6.872-.01,13.744.011,20.616q.018,5.793,5.54,7.906h-22.525c1.347-.474,1.909-.686,2.48-.87,2.3-.739,3.43-2.224,3.42-4.727-.05-11.37-.107-22.74.023-34.108ZM129.721,192.888c-3.533.989-36.355.939-39.067.007.127-.184.227-.495.388-.532,5.048-1.14,5.072-1.136,5.081-6.371.018-10.113.009-20.226.007-30.339q-.001-6.017-5.474-8.272h37.149c1.043,4.297,1.24,8.55-.292,12.957-.248-.727-.539-1.443-.737-2.184-1.381-5.178-4.872-7.954-10.295-8.069-2.495-.053-4.992.005-7.488.05-.347.006-.691.224-1.24.415-.131.769-.387,1.599-.395,2.431-.04,4.245-.079,8.491.01,12.734.061,2.886.993,3.442,3.79,2.735,2.549-.644,4.099-2.307,4.946-4.668.576-1.603.966-3.273,1.489-5.086,1.177,2.368,1.506,17.214.532,23.367-1.157-2.804-1.954-5.316-3.191-7.587-1.483-2.722-4.192-3.131-7.314-3.098-.103,1.273-.257,2.359-.267,3.446-.033,3.62-.042,7.242-.007,10.862.04,4.153,1.436,5.68,5.654,5.599,7.7-.147,14.319-2.28,17.246-10.427.12-.335.404-.616.636-.904.062-.078.212-.086.838-.315-.127,4.69-1.047,9.02-2.001,13.247ZM158.124,188.735c-2.189,4.556-6.993,6.654-12.323,5.286-2.361-.606-4.658-2.117-7.41.695v-11.677c1.156,1.851,1.744,3.25,2.729,4.262,1.533,1.575,3.203,3.107,5.065,4.247,1.719,1.052,4.435.233,5.402-1.167,1.016-1.471.594-3.752-1.29-5.293-2.798-2.288-5.773-4.36-8.624-6.586-4.765-3.72-5.614-8.996-2.292-13.881,2.297-3.378,6.306-4.672,10.58-3.416q3.717,1.093,7.291-.172v9.539c-.187.087-.374.173-.561.26-.731-1.053-1.336-2.23-2.22-3.133-1.456-1.487-2.983-2.953-4.683-4.137-1.716-1.196-3.36-.339-4.72.933-1.066.997-1.263,2.232-.187,3.299,1.5,1.488,3.084,2.904,4.734,4.223,1.653,1.323,3.463,2.447,5.148,3.733,4.322,3.298,5.601,8.319,3.36,12.983ZM167.592,189.317c-4.756-6.984-4.524-17.989,1.093-24.305,4.831-5.431,14.922-5.344,18.596-1.214.88.99,1.62,2.216,2.058,3.462.785,2.231-.087,4.409-1.775,5.132-2.255.966-5.062.044-6.02-2.213-.622-1.467-.686-3.168-1.279-4.652-.376-.942-1.199-2.282-1.938-2.361-1.016-.109-2.385.566-3.155,1.346-.816.827-1.43,2.132-1.573,3.297-.674,5.477-.887,10.897,1.874,16.045,3.142,5.858,7.743,6.987,13.203,3.001.287-.21.632-.34,1.534-.815-4.751,10.604-17.852,10.276-22.618,3.278ZM172.044,126.861c-.019-.156-.039-.311-.058-.467.752-.17,1.509-.319,2.255-.513,2.055-.534,3.141-1.935,3.429-3.978.104-.737.086-1.494.086-2.242.005-10.736.007-21.472-.004-32.208-.001-1.111-.095-2.222-.16-3.66-3.316-.792-6.472-.825-9.425.829-3.065,1.717-3.786,5.087-5.017,8.066-.254-.058-.507-.115-.761-.173v-11.062c3.359-.798,6.822-.27,10.225-.364,3.368-.094,6.741-.024,10.111-.023,3.495.002,6.991.009,10.486.012,3.356.002,6.713,0,10.383,0,.635,4.042.405,7.752-.218,11.604-1.732-3.51-2.838-7.403-6.859-8.852-2.489-.897-5.106-.66-7.919-.088-.097,1.196-.259,2.282-.261,3.369-.02,10.736-.028,21.472-.007,32.208.01,5.099.723,5.941,5.717,7.542h-22.003ZM222.016,186.766c-2.606,5.383-7.215,7.651-12.176,7.615-6.74.048-10.719-2.689-13.446-7.797-4.006-7.503-1.648-17.798,3.544-22.37,6.335-5.579,16.992-4.404,21.648,3.55,3.534,6.038,3.503,12.653.429,19.002ZM254.336,168.866c-1.189.576-2.815.268-4.247.309-.203.006-.409-.267-.623-.394-3.493-2.081-5.369-1.495-6.565,2.499-.778,2.597-1.122,5.358-1.36,8.072-.217,2.479.055,4.998-.04,7.493-.103,2.692.278,5.021,3.73,5.738-.187.249-.374.498-.561.747h-15.521c1.153-1.263,2.432-2.136,2.913-3.33.533-1.325.431-2.943.443-4.435.043-5.248.019-10.498.017-15.746q-.002-4.755-3.004-7.652h11.531c.308,2.056.57,3.798.93,6.195,1.647-1.881,2.76-3.345,4.07-4.602,1.836-1.762,3.88-3.098,6.683-2.476,1.655.367,2.789,1.188,2.985,2.886.201,1.738.47,3.799-1.381,4.695ZM278.632,164.669c-.93.096-1.986.23-3.045.308-1.109.081-2.222.109-3.536.169-.201.93-.523,1.744-.528,2.56-.04,6.116-.02,12.233-.008,18.349.001.622-.012,1.264.13,1.862.477,2.004,2.216,2.79,3.998,1.764.912-.525,1.711-1.249,2.881-2.121-1.8,4.855-4.792,6.514-9.714,6.067-3.071-.279-6.506-3.673-6.397-7.557.149-5.342-.307-10.7-.48-16.051-.047-1.466-.007-2.936-.007-4.5-1.42-.363-2.444-.624-4.066-1.038,2.59-2.415,4.943-4.36,6.991-6.587,2.092-2.275,3.884-4.825,6.079-7.598.221.99.478,1.732.534,2.49.082,1.117.019,2.245.02,3.369.004,5.403.003,5.421,5.224,5.918,1.392.133,2.54.36,1.926,2.596Z"/>
  <path class="cls-1" d="M382.11,105.934c-8.647-17.049-17.25-34.122-25.848-51.196-8.312-16.507-16.464-33.098-24.965-49.507-3.01-5.809-1.317-5.144-8.491-5.105-1.897.01-3.955-.611-5.906.809.669,1.209,1.297,2.25,1.837,3.334,5.904,11.844,11.754,23.715,17.7,35.537,6.733,13.387,13.568,26.723,20.325,40.098,4.958,9.815,9.852,19.663,14.802,29.483.81,1.608,1.383,3.033.374,4.9-7.363,13.622-14.631,27.297-21.923,40.958-8.406,15.749-16.8,31.504-25.216,47.248-2.237,4.185-4.472,8.374-6.846,12.481-.264.457-.631.964-1.041,1.396-.44.688-.922,1.352-1.351,2.053,3.079,0,6.158-.003,9.237.001,2.724.004,4.273-.827,5.482-3.367,2.468-5.182,5.327-10.179,8.041-15.244,10.616-19.813,21.242-39.62,31.856-59.434,3.891-7.264,7.709-14.568,11.653-21.803,3.479-6.381,3.477-6.339.279-12.643Z"/>
  <path class="cls-1" d="M22.925,94.309c-1.058-7.825-2.408-9.965-10.539-13.73-.087-.837-.253-1.806-.277-2.778q-.106-4.365,4.11-5.981c2.24-.858,3.827-2.47,4.628-4.642.994-2.694,2.806-3.331,5.503-3.32,19.747.079,39.495.072,59.242-.009,6.151-.025,11.836-1.911,16.814-5.517,2.203-1.595,4.027-3.712,6.034-5.58,2.736-2.547,5.483-5.082,8.52-7.896.225.054.956.181,1.656.404,4.966,1.584,8.82-.144,11.835-4.083,2.753-3.595,3.157-7.618,1.155-11.608-2.149-4.281-5.841-6.415-10.687-6.173-7.43.37-12.226,9.462-8.666,16.356.566,1.097,1.246,2.135,1.747,2.987-.092.563-.043.894-.184,1.039-4.275,4.366-8.382,8.922-12.92,12.997-3.622,3.253-8.291,4.77-13.138,4.798-20.997.12-41.994.059-62.991.052-.487,0-.975-.143-1.673-.252-1.82-5.373-3.868-10.726-10.862-11.037-5.265-.234-7.967,1.525-11.851,7.876-.121-1.331-.267-2.202-.268-3.073-.015-8.374.317-16.763-.077-25.118C-.595,16.713,7.564,8.625,17.854,4.136c4.917-2.145,10.147-3.351,15.637-3.38,7.981-.042,15.961-.549,23.941-.565,36.87-.075,73.741-.049,110.612-.058,1.316,0,2.632,0,3.948,0,.057.277.114.553.171.83-.555.357-1.112.711-1.665,1.07-5.344,3.468-6.808,7.971-4.721,14.274.797,2.409.634,3.872-1.134,5.6-5.447,5.323-10.804,10.741-16.125,16.191-8.018,8.211-15.972,16.484-23.961,24.724-8.08,8.333-16.208,16.62-24.238,25.001-4.232,4.417-9.568,6.649-15.408,6.722-19.994.251-39.994.102-59.991.088-.599,0-1.198-.189-1.994-.323Z"/>
  <path class="cls-1" d="M338.185.204c4.058,0,7.514-.109,10.953.091.702.041,1.567,1.127,1.97,1.926,15.516,30.769,30.978,61.565,46.472,92.345,2.637,5.238,5.366,10.43,8.098,15.619.696,1.323.746,2.409-.013,3.828-9.654,18.05-19.182,36.169-28.833,54.221-8.358,15.634-16.857,31.192-25.226,46.821-1.054,1.969-2.206,2.901-4.635,2.876-5.313-.055-10.63.351-15.977-.088,2.326-.212,4.652-.423,7.034-.64,2.606-4.697,5.184-9.253,7.676-13.857,4.159-7.682,8.27-15.391,12.388-23.095,11.068-20.706,22.13-41.417,33.194-62.126.118-.22.227-.445.34-.668,2.674-5.293,2.699-5.306-.018-10.659-5.029-9.91-10.136-19.781-15.128-29.709-12.226-24.319-24.407-48.661-36.595-73-.535-1.069-.963-2.191-1.7-3.885Z"/>
  <path class="cls-1" d="M8.599,209.143C3.163,204.546.126,198.726.118,191.415c-.02-18.989-.011-37.979-.013-56.968,0-1.984,0-3.967,0-5.802,1.852,2.292,3.228,5.439,5.581,6.594,4.218,2.07,4.138,5.177,4.123,8.885-.082,20.114-.036,40.228-.034,60.342,0,1.458,0,2.916,0,4.374-.392.101-.784.203-1.176.304Z"/>
  <path class="cls-1" d="M1.096,96.492c1.779,3.086,4.02,5.644,7.273,7.257.69.342,1.213,1.552,1.32,2.423.211,1.717-.029,3.486.112,5.217.197,2.425-.531,3.909-3.06,4.73-2.303.748-3.84,2.683-4.841,4.927-.396.887-.747,1.794-1.534,2.629v-26.974c.243-.07.487-.139.73-.209Z"/>
  <path class="cls-1" d="M9.727,81.014c-4.651.946-6.529,4.393-9.659,7.796.512-8.25-.428-15.585.353-23.847,1.018,1.454,1.462,2.134,1.951,2.779,1.435,1.889,2.817,3.863,5.347,4.413,1.284.279,1.976,1.042,1.998,2.333.035,2.092.01,4.186.01,6.526Z"/>
  <path class="cls-1" d="M203.776,178.11c.34-3.474.65-6.805,1.004-10.132.078-.734.232-1.48.485-2.171.673-1.84,2.12-2.806,3.997-2.827,1.89-.02,3.439.861,3.875,2.845.558,2.536,1.281,5.11,1.3,7.672.035,4.582-.319,9.174-.673,13.749-.235,3.029-1.842,4.757-4.163,4.922-2.551.182-4.382-1.382-4.854-4.543-.475-3.18-.665-6.403-.971-9.515Z"/>
</svg>