<?xml version="1.0" encoding="UTF-8"?>
<svg id="Layer_1" data-name="Layer 1" xmlns="http://www.w3.org/2000/svg" viewBox="0 0 863.246 806.249">
  <defs>
    <style>
      .cls-1 {
        fill: #fff;
        stroke-width: 0px;
      }
    </style>
  </defs>
  <path class="cls-1" d="M863.246,562.173v34.643c-.469,2.249-1.13,4.476-1.379,6.749-10.544,96.252-79.774,174.556-174.147,196.619-11.165,2.61-22.598,4.071-33.907,6.065H138.891c-.905-.45-1.765-1.122-2.722-1.318-48.776-9.966-79.148-46.842-79.153-96.317-.02-203.642-.023-407.284,0-610.926C57.024,41.024,98.126.031,154.922.019c127.276-.027,254.553-.024,381.829-.001,57.264.01,98.141,40.912,98.16,98.203.026,81.614.007,163.229.007,244.843v9.419c2.755.138,4.55.266,6.347.312,100.007,2.528,185.695,68.56,213.156,164.877,4.133,14.495,5.942,29.651,8.827,44.502ZM545.841,370.832c11.982-3.81,23.06-7.901,34.453-10.725,6.122-1.518,7.542-4.09,7.526-10.085-.211-83.694-.13-167.388-.15-251.083-.008-32.398-19.428-51.682-52.016-51.685-126.46-.01-252.92-.01-379.38,0-32.612.003-52.019,19.268-52.02,51.666-.01,202.808-.011,405.616,0,608.424.002,32.371,19.444,51.656,52.047,51.66,110.718.011,221.436.004,332.154.004h9.121c-56.588-47.133-87.066-105.694-87.586-177.926-.521-72.461,29.314-131.581,85.528-179.53-8.358,0-14.83.074-21.3-.015-14.576-.2-25.108-10.169-25.088-23.654.02-13.491,10.547-23.434,25.171-23.544,14.692-.11,29.394.306,44.074-.125,12.961-.381,22.385,4.323,27.463,16.617ZM815.998,579.713c.106-98.783-80.178-179.446-178.883-179.726-99.128-.281-180.026,80.228-180.131,179.265-.105,98.766,80.19,179.452,178.877,179.749,99.09.298,180.03-80.261,180.136-179.288Z"/>
  <path class="cls-1" d="M346.74,102.365c57.441,0,114.882-.01,172.322.005,18.488.005,27.654,9.063,27.664,27.386.026,47.998.031,95.997-.003,143.995-.012,17.79-9.324,27.011-27.256,27.014-115.144.017-230.288.017-345.432,0-17.935-.003-27.249-9.229-27.26-27.003-.029-48.261-.035-96.522.003-144.782.014-17.275,9.434-26.597,26.852-26.605,57.703-.027,115.406-.01,173.109-.01ZM499.145,150.163H194.648v102.953h304.496v-102.953Z"/>
  <path class="cls-1" d="M194.921,401.546c-8.113-.002-16.23.172-24.337-.041-13.728-.361-24.043-10.906-23.791-24.036.246-12.805,10.477-22.914,23.923-23.094,16.484-.222,32.976-.205,49.461-.008,13.898.166,24.23,10.461,24.186,23.628-.044,13.181-10.358,23.252-24.318,23.523-8.371.163-16.749.03-25.123.028Z"/>
  <path class="cls-1" d="M346.308,401.541c-8.113.004-16.229.159-24.338-.031-13.816-.324-24.14-10.676-24.009-23.824.127-12.805,10.334-23.105,23.705-23.304,16.745-.249,33.5-.259,50.245.004,13.397.21,23.539,10.534,23.619,23.391.081,12.851-9.999,23.275-23.317,23.707-8.627.28-17.271.053-25.907.057Z"/>
  <path class="cls-1" d="M195.588,502.326c-8.375-.003-16.754.183-25.122-.046-13.384-.365-23.553-10.54-23.673-23.364-.123-13.131,10.233-23.586,24.041-23.765,16.485-.213,32.976-.212,49.461,0,13.855.177,24.181,10.58,24.068,23.743-.114,13.178-10.437,23.151-24.437,23.409-8.11.149-16.225.027-24.338.024Z"/>
  <path class="cls-1" d="M345.93,502.326c-7.851.003-15.705.124-23.553-.024-13.947-.263-24.316-10.293-24.415-23.428-.099-13.135,10.256-23.55,24.083-23.724,16.485-.208,32.976-.214,49.461.002,13.839.181,24.163,10.622,24.026,23.783-.134,12.863-10.265,22.986-23.694,23.344-8.63.23-17.271.043-25.908.046Z"/>
  <path class="cls-1" d="M195.43,555.881c8.375.001,16.753-.165,25.123.039,13.441.328,23.622,10.383,23.809,23.227.192,13.168-10.099,23.7-23.911,23.901-16.484.24-32.976.215-49.461.011-13.889-.172-24.222-10.468-24.199-23.622.023-13.125,10.407-23.266,24.3-23.529,8.11-.154,16.225-.028,24.338-.027Z"/>
  <path class="cls-1" d="M347.291,555.883c8.113-.001,16.229-.16,24.338.034,13.798.33,24.111,10.761,23.904,23.921-.203,12.862-10.349,23.01-23.816,23.207-16.745.245-33.501.275-50.245-.013-13.329-.229-23.48-10.684-23.509-23.501-.029-12.8,10.14-23.206,23.421-23.599,8.629-.255,17.271-.048,25.907-.05Z"/>
  <path class="cls-1" d="M195.59,703.885c-8.375-.003-16.754.183-25.122-.046-13.384-.365-23.554-10.538-23.675-23.362-.125-13.131,10.231-23.588,24.039-23.767,16.485-.213,32.976-.211,49.461,0,13.856.177,24.182,10.578,24.07,23.74-.112,13.178-10.436,23.153-24.434,23.411-8.11.15-16.225.027-24.338.024Z"/>
  <path class="cls-1" d="M346.68,703.873c-8.375.008-16.755.202-25.122-.036-13.356-.38-23.519-10.62-23.595-23.44-.077-12.807,10.068-23.423,23.335-23.657,17.005-.301,34.025-.315,51.029.009,13.269.253,23.36,10.948,23.206,23.782-.15,12.516-10.058,22.779-22.946,23.272-8.624.33-17.27.063-25.906.071Z"/>
  <path class="cls-1" d="M687.023,502.475c-.027,19.666-16.893,30.515-32.752,23.801-4.816-2.039-9.453-4.651-14.433-6.115-8.471-2.49-14.422-.016-17.368,6.42-2.628,5.743-2.495,10.868,4.023,13.824,11.426,5.181,22.748,10.681,34.471,15.1,26.449,9.97,43.316,27.7,44.84,56.64,1.607,30.527-12.544,52.608-39.38,67.012-3.188,1.711-6.125,5.252-7.546,8.631-3.891,9.255-11.665,15.76-21.351,15.985-10.117.235-18.016-4.186-22.043-13.456-2.06-4.741-5.041-6.139-9.489-7.781-8.776-3.238-17.417-7.206-25.465-11.969-11.955-7.076-15.123-21.555-8.057-32.776,6.83-10.846,21.102-14.625,32.389-7.218,10.784,7.077,22.167,8.917,34.47,7.701,8.299-.82,14.018-5.446,17.5-12.858,5.083-10.82,1.705-19.601-9.303-24.343-13.689-5.897-27.686-11.163-41.04-17.738-20.996-10.338-33.384-27.138-32.705-51.194.699-24.799,12.318-43.315,34.704-54.835,2.431-1.251,4.645-3.969,5.768-6.53,4.41-10.059,12.939-16.048,23.197-15.611,10.244.436,19.075,6.921,21.46,17.576,1.332,5.951,5.439,7.075,9.588,8.793,10.699,4.431,18.374,11.083,18.522,20.942Z"/>
</svg>