<?xml version="1.0" encoding="UTF-8"?>
<svg id="Layer_1" data-name="Layer 1" xmlns="http://www.w3.org/2000/svg" viewBox="0 0 863.246 817.579">
  <defs>
    <style>
      .cls-1 {
        fill: #fff;
        stroke-width: 0px;
      }
    </style>
  </defs>
  <path class="cls-1" d="M370.536,772.935c-64.299,0-128.598.168-192.896-.055-50.888-.176-93.174-31.729-106.404-79.545-2.636-9.526-4.05-19.696-4.105-29.58-.358-64.041-.215-128.085-.168-192.128.015-20.944,14.257-36.204,33.611-36.27,19.213-.065,33.863,15.21,33.911,36.08.144,62.198.826,124.409-.269,186.588-.542,30.8,21.607,47.78,47.38,47.632,126.221-.722,252.45-.673,378.672-.033,24.965.126,47.018-16.834,46.557-46.811-.957-62.183-.327-124.392-.26-186.589.02-18.218,9.847-31.851,25.335-35.678,21.681-5.358,41.865,10.106,42.162,32.708.288,21.871.07,43.749.071,65.623.001,41.905.028,83.809-.006,125.714-.054,64.821-47.344,112.205-112.277,112.32-63.771.112-127.543.024-191.315.024Z"/>
  <path class="cls-1" d="M370.342,109.969c-14.711,13.215-29.183,26.195-43.633,39.199-89.499,80.547-178.985,161.108-268.496,241.642-14.171,12.75-31.679,13.931-45.317,3.214-12.661-9.949-16.707-27.797-8.958-41.958,2.342-4.28,5.805-8.182,9.459-11.476C124.55,240.388,235.776,140.267,347.033,40.181c14.443-12.992,32.536-13.037,47.097.057,111.277,100.068,222.469,200.23,333.738,300.307,11.239,10.109,15.893,22.241,11.551,36.872-4.064,13.694-13.889,21.475-27.884,23.555-10.868,1.616-20.091-2.33-28.149-9.594-52.251-47.1-104.547-94.149-156.823-141.222-49.927-44.958-99.843-89.928-149.779-134.877-1.92-1.729-3.987-3.294-6.442-5.31Z"/>
</svg>