<?xml version="1.0" encoding="UTF-8"?>
<svg id="Layer_1" data-name="Layer 1" xmlns="http://www.w3.org/2000/svg" viewBox="0 0 863.246 817.579">
  <defs>
    <style>
      .cls-1 {
        fill: #fff;
        stroke: #fff;
        stroke-miterlimit: 10;
        stroke-width: 12px;
      }
    </style>
  </defs>
  <path class="cls-1" d="M494.181,6c3.168,2.729,6.526,5.269,9.477,8.216,53.396,53.317,106.699,106.726,160.163,159.975,5.724,5.701,8.713,11.725,8.706,20.053-.163,183.141-.096,366.282-.157,549.423-.011,33.474-22.271,60.405-55.116,66.933-4.321.859-8.849.931-13.282.932-155.892.045-311.785.074-467.677.014-39.788-.016-68.731-29.147-68.739-69.125-.041-222.442-.032-444.883-.007-667.325.004-33,18.159-57.617,49.57-67.544,1.49-.471,2.952-1.032,4.426-1.551,124.212,0,248.424,0,372.636,0ZM102.84,408.532c0,110.823-.027,221.645.022,332.468.01,22.337,12.337,35.215,34.019,35.225,155.362.073,310.725.071,466.087.002,21.414-.01,34.087-12.804,34.095-34.356.061-175.012-.002-350.024.178-525.035.008-7.46-2.619-9.238-9.611-9.163-29.864.32-59.733.22-89.6.107-38.746-.146-67.843-29.412-67.964-68.323-.092-29.605-.31-59.215.163-88.813.131-8.203-2.626-10.35-10.37-10.05-13.865.538-27.765.151-41.651.151-93.008,0-186.016.041-279.023-.06-8.892-.01-17.216,1.074-24.367,6.881-9.344,7.588-12.094,17.583-12.077,29.282.164,110.561.097,221.123.099,331.684ZM505.359,68.133c0,23.924-.133,47.475.04,71.024.15,20.371,13.042,33.145,33.55,33.302,21.744.166,43.491.064,65.236.016,1.914-.004,3.827-.473,4.908-.616-34.408-34.405-68.765-68.759-103.735-103.725Z"/>
  <path class="cls-1" d="M369.17,409.061c-60.478-.003-120.956.022-181.434-.024-12.019-.009-19.276-6.37-19.517-16.745-.193-8.287,4.262-14.91,12.235-17.066,3.976-1.075,8.26-1.399,12.406-1.401,118.076-.071,236.152-.071,354.228,0,4.145.002,8.439.308,12.404,1.407,8.736,2.422,13.412,10.344,12.101,19.43-1.14,7.907-7.792,13.936-16.279,14.296-6.534.277-13.088.104-19.633.105-55.504.004-111.007.002-166.511,0Z"/>
  <path class="cls-1" d="M369.456,509.689c-60.478-.003-120.956.019-181.434-.021-12.106-.008-19.425-6.209-19.796-16.464-.312-8.62,4.309-15.353,12.708-17.485,3.996-1.015,8.275-1.272,12.426-1.274,117.814-.064,235.628-.062,353.442-.005,3.894.002,7.899.226,11.658,1.142,9.341,2.275,14.359,9.981,13.156,19.421-1.053,8.261-7.822,14.493-16.8,14.582-21.728.214-43.459.101-65.19.105-40.057.006-80.114.002-120.17,0Z"/>
  <path class="cls-1" d="M369.534,610.317c-60.478-.002-120.956-.062-181.434.069-8.052.017-14.447-2.297-18.229-9.684-4.837-9.447-.054-21.006,10.238-24.118,3.927-1.188,8.246-1.498,12.387-1.5,118.338-.075,236.675-.068,355.013-.023,3.377.001,6.835.201,10.117.931,9.626,2.141,14.823,9.279,14.049,18.779-.732,8.986-7.706,15.382-17.567,15.477-18.587.179-37.176.07-55.765.071-42.937.003-85.873.001-128.81-.001Z"/>
  <path class="cls-1" d="M235.294,174.693c-5.236,0-10.478-.164-15.707.036-9.218.353-15.334,5.859-15.952,14.071-.678,9.005,4.201,15.443,13.476,17.293,4.338.865,8.878.781,13.179,1.768,20.53,4.709,35.926,21.084,39.184,41.346,3.353,20.854-6.133,41.395-24.624,52.049-4.81,2.771-8.051,5.57-9.26,11.395-1.607,7.744-7.512,11.973-15.218,12.616-7.756.647-14.282-2.762-16.965-10.099-2.201-6.021-5.759-7.336-11.285-6.773-2.331.237-4.712.102-7.063-.016-8.957-.452-15.725-6.416-16.746-14.683-1.169-9.461,3.771-17.673,13.224-19.251,8.432-1.408,17.175-.987,25.783-1.288,3.923-.137,7.86.074,11.778-.122,9.556-.477,15.279-6.236,15.363-15.267.085-9.103-5.165-14.891-14.949-15.66-16.12-1.267-30.004-6.808-40.329-19.766-19.627-24.633-12.88-60.354,14.499-75.862,4.262-2.414,7.435-4.625,8.441-10.129,1.459-7.978,7.16-12.839,15.317-13.548,8.095-.704,14.476,2.867,17.478,10.549,1.883,4.819,4.796,6.323,9.56,5.925,2.857-.239,5.77-.163,8.631.082,9.827.842,16.668,8.055,16.719,17.454.052,9.429-6.688,16.92-16.478,17.642-5.988.442-12.036.082-18.056.082,0,.052,0,.104,0,.156Z"/>
  <path class="cls-1" d="M453.125,308.433c-32.205,0-64.411.026-96.616-.013-12.864-.016-20.717-6.562-20.918-17.252-.19-10.071,8.413-17.922,20.697-17.946,64.934-.128,129.868-.067,194.803-.014,2.327.002,4.704.4,6.97.965,9.472,2.362,14.576,9.643,13.584,19.151-.9,8.623-7.777,14.982-17.191,15.023-33.776.149-67.552.058-101.329.058v.028Z"/>
  <path class="cls-1" d="M285.581,710.929c-32.992.003-65.983.079-98.975-.037-11.757-.041-19.084-7.673-18.351-18.637.512-7.651,4.649-12.812,11.791-15.012,3.919-1.207,8.24-1.525,12.381-1.531,62.579-.091,125.159-.07,187.738-.042,2.869.001,5.79.033,8.598.542,9.737,1.766,16.359,9.903,15.456,18.694-.982,9.56-7.882,15.932-18.093,15.971-33.515.128-67.03.048-100.546.051Z"/>
</svg>