<svg xmlns="http://www.w3.org/2000/svg" viewBox="0 0 512 512" id="invoice-receipt">
  <path fill="#03c4a1" d="m468.819 237.04-145.69 145.69-38.19-38.19 128.56-128.57 17.12-17.12 38.2 38.19z"></path>
  <path d="m490.831 188.886-12.055-12.046a24.481 24.481 0 0 0-34.628 0l-17.77 17.77-6.878 6.881V59.25A45.3 45.3 0 0 0 374.26 14H59.25A45.262 45.262 0 0 0 14 59.25v82.03a6 6 0 0 0 6 6h72.5V492a6 6 0 0 0 6 6h315a6 6 0 0 0 6-6V294.828l53.558-53.541 17.77-17.77a24.523 24.523 0 0 0 .003-34.631ZM26 135.28V59.25a33.25 33.25 0 0 1 66.5 0v76.03ZM407.5 486h-303V59.25A45.131 45.131 0 0 0 89.9 26h284.36a33.282 33.282 0 0 1 33.24 33.25v154.235l-55.173 55.177c-.044.045-.074.1-.117.143-35.75 35.766-70.995 71.028-71.041 71.08a5.994 5.994 0 0 0-2 3.014L264 396.26a6 6 0 0 0 7.412 7.412l53.361-15.17a5.988 5.988 0 0 0 2.983-1.966c.051-.045 41.24-41.219 79.746-79.712ZM287.918 356l23.748 23.748-33.181 9.433Zm35.211 18.242-29.7-29.7 137.2-137.206 14.862 14.859 14.851 14.847Zm159.219-159.215-13.528 13.528-14.863-14.855-14.851-14.85 13.528-13.528a12.48 12.48 0 0 1 17.655 0l12.055 12.046a12.506 12.506 0 0 1 .004 17.659Z"></path>
  <path d="M176.511 262h158.978a6 6 0 1 0 0-12H176.511a6 6 0 1 0 0 12zm0-141.9h158.978a6 6 0 0 0 0-12H176.511a6 6 0 0 0 0 12zm71.744 271.8h-71.744a6 6 0 1 0 0 12h71.744a6 6 0 0 0 0-12z"></path>
</svg>
