<?xml version="1.0" encoding="UTF-8"?>
<svg id="Layer_1" data-name="Layer 1" xmlns="http://www.w3.org/2000/svg" viewBox="0 0 844.371 664.043">
  <defs>
    <style>
      .cls-1 {
        fill: #fff;
        stroke-width: 0px;
      }
    </style>
  </defs>
  <path class="cls-1" d="M174.907,342.603c-87.374-66.992-86.709-193.647-11.208-262.375,69.443-63.213,178.274-58.08,241.744,12.206,62.987,69.751,59.989,183.278-22.78,249.393,18.087,9.729,36.096,19.416,54.53,29.332,16.786-60.817,53.41-106.027,110.697-135.54-36.547-36.142-52.126-79.027-41.582-129.8,6.841-32.94,24.457-59.369,51.349-79.378,54.335-40.429,129.741-33.729,177.131,14.861,45.847,47.007,56.202,134.086-6.234,193.6,12.816,8.653,26.483,16.409,38.462,26.224,50.502,41.381,75.768,95.258,77.221,160.416.131,5.887.235,11.79-.043,17.667-.753,15.876-12.472,27.526-27.268,27.362-14.945-.166-26.532-11.907-26.392-27.928.223-25.413-1.71-50.313-11.378-74.241-26.007-64.364-91.844-102.572-162.312-93.876-66.162,8.165-121.357,63.246-130.431,129.976-1.218,8.959.13,16.081,6.443,23.678,41.614,50.071,62.606,108.056,63.949,173.125.266,12.897.21,25.805.049,38.705-.198,15.869-11.601,27.763-26.531,27.998-15.167.239-27.192-11.938-27.235-28.137-.079-29.992.539-59.916-6.704-89.472-23.928-97.635-114.39-169.149-214.816-169.27-112.002-.136-203.514,74.889-223.538,184.973-4.124,22.674-2.734,46.346-3.978,69.552-.253,4.723-.169,9.657-1.543,14.089-3.7,11.932-16.134,19.619-28.104,18.113-13.642-1.716-23.608-12.524-24.05-27.034-.401-13.169-.569-26.387.069-39.539,5.721-117.985,62.455-201.846,169.167-252.117,1.703-.802,3.391-1.634,5.315-2.563ZM278.575,322.592c64.792-.004,116.73-51.7,116.739-116.193.009-64.463-52.071-116.482-116.642-116.506-64.54-.023-116.783,52.027-116.838,116.408-.055,64.428,52.012,116.295,116.741,116.291ZM637.314,214.879c45.138.03,80.987-35.296,81.135-79.954.148-44.499-35.805-80.772-80.406-81.124-44.266-.349-80.961,36.014-81.125,80.389-.165,44.694,35.669,80.658,80.396,80.689Z"/>
</svg>